<svg width="356" height="102" xmlns="http://www.w3.org/2000/svg"><g fill-rule="nonzero" fill="none"><path d="M17.635 3.255c.25.689-.141 1.222-1.175 1.598-.206.075-.374.097-.503.066-.664-1.397-1.892-1.77-3.684-1.117-1.688.614-2.295 3.02-1.82 7.218.37 2.947 1.006 5.662 1.91 8.142.228-.122.538-.235.93-.338l1.395-.508c1.275-.464 2.05-.317 2.326.44.088.242.179.6.273 1.072-.438.51-1.243.98-2.415 1.406-.896.326-1.422.595-1.578.808.385 1.382 1.218 3.83 2.497 7.344l1.354 3.722a24.298 24.298 0 002.393 4.806c.132.147.223.29.273.427.301.827-.134 1.454-1.306 1.88-1.033.377-2.058-.83-3.074-3.622-2.759-7.58-4.32-12.084-4.684-13.512l-2.636.959c-.792.288-1.326.053-1.602-.704-.364-1 .143-1.75 1.521-2.252l1.861-.677a82.733 82.733 0 00-.753-2.711c-2.819-9.353-1.92-14.87 2.697-16.55 2.964-1.08 4.897-.378 5.8 2.103z" fill="#61772A"/><path d="M32.931 11.91c.39 1.068.852 2.714 1.388 4.938.558 2.177 1.12 4.04 1.684 5.591.226.62.71 1.79 1.453 3.51.765 1.673 1.285 2.888 1.561 3.646.552 1.516.712 2.492.48 2.927-.156.213-.424.389-.803.527-.758.276-1.394.136-1.908-.418a185.05 185.05 0 00-1.11-1.762c-.46 1.846-1.826 3.397-4.1 4.654-.846.463-2.024.444-3.534-.06-1.369-.439-2.376-1.008-3.022-1.71-.896-.961-1.933-3.062-3.112-6.3l-4.082-11.216c-.583-.958-.186-1.688 1.192-2.19.965-.35 1.648.025 2.05 1.127.602 1.654 1.334 3.827 2.196 6.517 1.126 3.415 1.858 5.587 2.196 6.517.417 1.253 1.144 2.393 2.182 3.42 1.228 1.231 2.376 1.652 3.444 1.263 1.758-.64 2.692-2.306 2.804-5 .05-2.008-.308-4.063-1.073-6.165l-2.464-6.77c-.1-.276-.342-.617-.724-1.025-.36-.454-.597-.836-.71-1.146a3.707 3.707 0 01-.155-.587c.319-.624.714-1.04 1.183-1.25 1.5-.703 2.495-.382 2.985.962zM59.59 24.39c-.068.454-.292.75-.671.888-.379.138-1.087.122-2.124-.046l-.15-.414c-.113-.31-.265-.782-.457-1.414a28.934 28.934 0 00-.437-1.363C51.587 10.602 48.076 5.403 45.216 6.444c-.896.326-1.622 1.332-2.18 3.017-1.44 4.192-1.263 8.751.53 13.679.24.654.694 1.581 1.364 2.781.693 1.153 1.159 2.056 1.397 2.71.188.518-.08.908-.803 1.171-1.379.502-2.463-.333-3.253-2.503l-4.27-11.732c-.113-.31-.241-.771-.386-1.382a13.219 13.219 0 00-.385-1.381c-.163-.448-.47-1.078-.922-1.889-.417-.824-.7-1.442-.851-1.856-.1-.275-.007-.66.282-1.156.31-.542.585-.857.826-.944.448-.164.95-.073 1.504.272.712 2.277 1.137 3.605 1.275 3.984.188.517.387 1.01.597 1.48.272-.216.479-.935.62-2.157.178-1.548.403-2.644.675-3.29.476-1.265 1.248-2.093 2.316-2.481.413-.15 1.09-.222 2.03-.212 2.111.011 3.852.666 5.221 1.962 2.335 2.233 4.317 5.59 5.947 10.068l2.84 7.805z" fill="#61772A"/><path d="M60.14 81.86c1.32 0 2.4-.1 3.24-.3.88-.24 1.58-.54 2.1-.9.52-.4.88-.86 1.08-1.38.2-.52.3-1.1.3-1.74 0-1.36-.64-2.48-1.92-3.36-1.28-.92-3.48-1.9-6.6-2.94-1.36-.48-2.72-1.02-4.08-1.62-1.36-.64-2.58-1.42-3.66-2.34-1.08-.96-1.96-2.1-2.64-3.42-.68-1.36-1.02-3-1.02-4.92s.36-3.64 1.08-5.16a11.01 11.01 0 013.06-3.96c1.32-1.08 2.92-1.9 4.8-2.46 1.88-.6 4-.9 6.36-.9 2.8 0 5.22.3 7.26.9 2.04.6 3.72 1.26 5.04 1.98l-2.7 7.38c-1.16-.6-2.46-1.12-3.9-1.56-1.4-.48-3.1-.72-5.1-.72-2.24 0-3.86.32-4.86.96-.96.6-1.44 1.54-1.44 2.82 0 .76.18 1.4.54 1.92.36.52.86 1 1.5 1.44.68.4 1.44.78 2.28 1.14.88.32 1.84.66 2.88 1.02 2.16.8 4.04 1.6 5.64 2.4 1.6.76 2.92 1.66 3.96 2.7a9.716 9.716 0 012.4 3.66c.52 1.4.78 3.1.78 5.1 0 3.88-1.36 6.9-4.08 9.06-2.72 2.12-6.82 3.18-12.3 3.18-1.84 0-3.5-.12-4.98-.36-1.48-.2-2.8-.46-3.96-.78-1.12-.32-2.1-.66-2.94-1.02-.8-.36-1.48-.7-2.04-1.02l2.64-7.44c1.24.68 2.76 1.3 4.56 1.86 1.84.52 4.08.78 6.72.78zM82.822 49.58l8.94-1.44v9.3h10.74v7.44h-10.74v11.1c0 1.88.32 3.38.96 4.5.68 1.12 2.02 1.68 4.02 1.68.96 0 1.94-.08 2.94-.24 1.04-.2 1.98-.46 2.82-.78l1.26 6.96c-1.08.44-2.28.82-3.6 1.14-1.32.32-2.94.48-4.86.48-2.44 0-4.46-.32-6.06-.96-1.6-.68-2.88-1.6-3.84-2.76-.96-1.2-1.64-2.64-2.04-4.32-.36-1.68-.54-3.54-.54-5.58V49.58zM120.67 82.76c.88 0 1.72-.02 2.52-.06.8-.04 1.44-.1 1.92-.18v-6.78c-.36-.08-.9-.16-1.62-.24-.72-.08-1.38-.12-1.98-.12-.84 0-1.64.06-2.4.18-.72.08-1.36.26-1.92.54-.56.28-1 .66-1.32 1.14-.32.48-.48 1.08-.48 1.8 0 1.4.46 2.38 1.38 2.94.96.52 2.26.78 3.9.78zm-.72-26.16c2.64 0 4.84.3 6.6.9 1.76.6 3.16 1.46 4.2 2.58 1.08 1.12 1.84 2.48 2.28 4.08.44 1.6.66 3.38.66 5.34v18.6c-1.28.28-3.06.6-5.34.96-2.28.4-5.04.6-8.28.6-2.04 0-3.9-.18-5.58-.54-1.64-.36-3.06-.94-4.26-1.74a8.325 8.325 0 01-2.76-3.24c-.64-1.32-.96-2.94-.96-4.86 0-1.84.36-3.4 1.08-4.68.76-1.28 1.76-2.3 3-3.06 1.24-.76 2.66-1.3 4.26-1.62 1.6-.36 3.26-.54 4.98-.54 1.16 0 2.18.06 3.06.18.92.08 1.66.2 2.22.36v-.84c0-1.52-.46-2.74-1.38-3.66-.92-.92-2.52-1.38-4.8-1.38-1.52 0-3.02.12-4.5.36-1.48.2-2.76.5-3.84.9l-1.14-7.2c.52-.16 1.16-.32 1.92-.48.8-.2 1.66-.36 2.58-.48.92-.16 1.88-.28 2.88-.36 1.04-.12 2.08-.18 3.12-.18zM141.774 58.52c1.52-.44 3.48-.84 5.88-1.2 2.4-.4 4.92-.6 7.56-.6 2.68 0 4.9.36 6.66 1.08 1.8.68 3.22 1.66 4.26 2.94 1.04 1.28 1.78 2.8 2.22 4.56.44 1.76.66 3.72.66 5.88V89h-8.94V72.26c0-2.88-.38-4.92-1.14-6.12-.76-1.2-2.18-1.8-4.26-1.8-.64 0-1.32.04-2.04.12-.72.04-1.36.1-1.92.18V89h-8.94V58.52zM184.726 72.98c0 2.76.62 4.98 1.86 6.66 1.24 1.68 3.08 2.52 5.52 2.52.8 0 1.54-.02 2.22-.06.68-.08 1.24-.16 1.68-.24V65.6c-.56-.36-1.3-.66-2.22-.9-.88-.24-1.78-.36-2.7-.36-4.24 0-6.36 2.88-6.36 8.64zm20.22 15c-.8.24-1.72.48-2.76.72-1.04.2-2.14.38-3.3.54-1.12.16-2.28.28-3.48.36-1.16.12-2.28.18-3.36.18-2.6 0-4.92-.38-6.96-1.14-2.04-.76-3.76-1.84-5.16-3.24-1.4-1.44-2.48-3.16-3.24-5.16-.72-2.04-1.08-4.32-1.08-6.84 0-2.56.32-4.86.96-6.9.64-2.08 1.56-3.84 2.76-5.28 1.2-1.44 2.66-2.54 4.38-3.3 1.76-.76 3.76-1.14 6-1.14 1.24 0 2.34.12 3.3.36 1 .24 2 .58 3 1.02V43.88l8.94-1.44v45.54zM240.257 87.92c-1.52.44-3.48.84-5.88 1.2-2.4.4-4.92.6-7.56.6-2.68 0-4.92-.36-6.72-1.08-1.76-.72-3.16-1.72-4.2-3-1.04-1.32-1.78-2.88-2.22-4.68-.44-1.8-.66-3.78-.66-5.94V57.44h8.94v16.5c0 2.88.38 4.96 1.14 6.24.76 1.28 2.18 1.92 4.26 1.92.64 0 1.32-.02 2.04-.06.72-.08 1.36-.16 1.92-.24V57.44h8.94v30.48zM268.869 73.46c0-2.76-.62-4.96-1.86-6.6-1.24-1.68-3.08-2.52-5.52-2.52-.8 0-1.54.04-2.22.12-.68.04-1.24.1-1.68.18v16.14c.56.36 1.28.66 2.16.9.92.24 1.84.36 2.76.36 4.24 0 6.36-2.86 6.36-8.58zm9.12-.24c0 2.44-.3 4.66-.9 6.66-.6 2-1.48 3.72-2.64 5.16-1.16 1.44-2.6 2.56-4.32 3.36-1.72.8-3.7 1.2-5.94 1.2-1.24 0-2.4-.12-3.48-.36s-2.12-.58-3.12-1.02v11.88h-8.94V58.52c.8-.24 1.72-.46 2.76-.66 1.04-.24 2.12-.44 3.24-.6 1.16-.16 2.32-.28 3.48-.36 1.2-.12 2.34-.18 3.42-.18 2.6 0 4.92.4 6.96 1.2 2.04.76 3.76 1.86 5.16 3.3 1.4 1.4 2.46 3.12 3.18 5.16.76 2.04 1.14 4.32 1.14 6.84zM293.92 82.58c1.64 0 2.8-.16 3.48-.48.68-.32 1.02-.94 1.02-1.86 0-.72-.44-1.34-1.32-1.86-.88-.56-2.22-1.18-4.02-1.86-1.4-.52-2.68-1.06-3.84-1.62-1.12-.56-2.08-1.22-2.88-1.98-.8-.8-1.42-1.74-1.86-2.82-.44-1.08-.66-2.38-.66-3.9 0-2.96 1.1-5.3 3.3-7.02 2.2-1.72 5.22-2.58 9.06-2.58 1.92 0 3.76.18 5.52.54 1.76.32 3.16.68 4.2 1.08l-1.56 6.96c-1.04-.36-2.18-.68-3.42-.96-1.2-.28-2.56-.42-4.08-.42-2.8 0-4.2.78-4.2 2.34 0 .36.06.68.18.96.12.28.36.56.72.84.36.24.84.52 1.44.84.64.28 1.44.6 2.4.96 1.96.72 3.58 1.44 4.86 2.16 1.28.68 2.28 1.44 3 2.28.76.8 1.28 1.7 1.56 2.7.32 1 .48 2.16.48 3.48 0 3.12-1.18 5.48-3.54 7.08-2.32 1.6-5.62 2.4-9.9 2.4-2.8 0-5.14-.24-7.02-.72-1.84-.48-3.12-.88-3.84-1.2l1.5-7.26c1.52.6 3.08 1.08 4.68 1.44 1.6.32 3.18.48 4.74.48z" fill="#1A202C"/><path d="M37.456 68.537c-.326.895-.971 1.168-1.936.817-1.516-.552-1.122-3.94 1.182-10.164l8.602-23.15c.137-.378.28-.931.428-1.658.16-.761.302-1.314.428-1.658.83-.244 1.469-.285 1.917-.122.482.176.902.523 1.259 1.044.357.52.448 1.02.272 1.503-.125.345-.375.761-.747 1.25-.458.614-.735 1-.832 1.16-1.267 2.193-2.665 5.39-4.195 9.594-2.47 6.788-3.679 10.055-3.626 9.801-1.439 4.276-2.323 7.563-2.653 9.863-.037.103-.056.37-.056.799.046.407.032.714-.043.92z" fill="#61772A"/><path d="M29.674 46.24c.226.62.427 1.601.603 2.942.176 1.34.376 2.321.602 2.941l4.157 11.422c.276.758.807 1.735 1.594 2.932-.037.326-.177.532-.418.62-1.688.615-2.827.112-3.417-1.507l-6.903-18.968c.36-.404.747-.681 1.16-.832.414-.15.888-.187 1.424-.108.674.028 1.073.214 1.198.558z" fill="#61772A"/></g></svg>
