<svg width="290" height="95" xmlns="http://www.w3.org/2000/svg"><g fill-rule="nonzero" fill="none"><path d="M58.264 85.768c3.36 0 6.216-.504 8.568-1.512 2.352-1.008 4.12-2.368 5.304-4.08 1.184-1.712 1.776-3.624 1.776-5.736 0-2.432-.648-4.352-1.944-5.76-1.296-1.408-2.824-2.424-4.584-3.048-1.76-.624-3.92-1.176-6.48-1.656-1.984-.384-3.408-.744-4.272-1.08-.864-.336-1.296-.84-1.296-1.512 0-1.408 1.456-2.112 4.368-2.112 2.944 0 6.064.832 9.36 2.496l3.408-8.208c-1.696-.96-3.656-1.688-5.88-2.184a31.108 31.108 0 00-6.792-.744c-3.36 0-6.216.496-8.568 1.488-2.352.992-4.12 2.352-5.304 4.08-1.184 1.728-1.776 3.648-1.776 5.76 0 2.432.64 4.36 1.92 5.784 1.28 1.424 2.784 2.448 4.512 3.072 1.728.624 3.888 1.208 6.48 1.752 2.016.416 3.464.8 4.344 1.152.88.352 1.32.88 1.32 1.584 0 .608-.336 1.064-1.008 1.368-.672.304-1.792.456-3.36.456-1.824 0-3.728-.28-5.712-.84-1.984-.56-3.776-1.304-5.376-2.232l-3.648 8.256c1.696 1.056 3.864 1.896 6.504 2.52a35.25 35.25 0 008.136.936zm31.344-.288c2.816 0 5.04-.464 6.672-1.392l-2.592-7.536c-.704.48-1.52.72-2.448.72-.672 0-1.216-.224-1.632-.672-.416-.448-.624-1.072-.624-1.872v-6.624h5.376v-7.92h-5.376V52.84H78.136v7.344h-3.6v7.92h3.6v6.72c0 3.552.992 6.216 2.976 7.992 1.984 1.776 4.816 2.664 8.496 2.664zm17.856 0c3.712 0 6.192-1.312 7.44-3.936V85h10.08V70.888c0-4.288-1.216-7.464-3.648-9.528-2.432-2.064-5.952-3.096-10.56-3.096-2.112 0-4.232.264-6.36.792s-3.944 1.256-5.448 2.184l3.456 7.152c.864-.64 1.904-1.144 3.12-1.512a12.383 12.383 0 013.6-.552c2.944 0 4.592 1.024 4.944 3.072h-4.368c-4.032 0-7.04.672-9.024 2.016-1.984 1.344-2.976 3.312-2.976 5.904 0 1.536.376 2.92 1.128 4.152.752 1.232 1.856 2.208 3.312 2.928 1.456.72 3.224 1.08 5.304 1.08zm3.264-6.528c-.8 0-1.432-.2-1.896-.6a1.912 1.912 0 01-.696-1.512c0-1.472 1.104-2.208 3.312-2.208h2.688v1.824c-.288.832-.736 1.456-1.344 1.872a3.57 3.57 0 01-2.064.624zM140.536 85V72.664c0-1.824.376-3.16 1.128-4.008.752-.848 1.736-1.272 2.952-1.272 2.144 0 3.216 1.504 3.216 4.512V85h10.848V70.024c0-3.936-.984-6.88-2.952-8.832-1.968-1.952-4.568-2.928-7.8-2.928-1.568 0-3.024.256-4.368.768a10.01 10.01 0 00-3.552 2.304v-2.592h-10.32V85h10.848zm34.848.48c3.232 0 5.632-.88 7.2-2.64V85h10.32V49.384h-10.848V60.52c-1.536-1.504-3.76-2.256-6.672-2.256-2.304 0-4.424.552-6.36 1.656-1.936 1.104-3.472 2.688-4.608 4.752-1.136 2.064-1.704 4.456-1.704 7.176 0 2.72.568 5.12 1.704 7.2 1.136 2.08 2.672 3.672 4.608 4.776 1.936 1.104 4.056 1.656 6.36 1.656zm2.592-8.448c-1.248 0-2.272-.456-3.072-1.368-.8-.912-1.2-2.184-1.2-3.816 0-1.632.4-2.896 1.2-3.792.8-.896 1.824-1.344 3.072-1.344s2.272.448 3.072 1.344c.8.896 1.2 2.16 1.2 3.792 0 1.632-.4 2.904-1.2 3.816-.8.912-1.824 1.368-3.072 1.368zm30.672 8.448c1.44 0 2.8-.248 4.08-.744a9.3 9.3 0 003.36-2.232V85h10.32V58.744H215.56V71.08c0 1.824-.352 3.16-1.056 4.008-.704.848-1.584 1.272-2.64 1.272-1.12 0-1.968-.384-2.544-1.152-.576-.768-.864-2.048-.864-3.84V58.744h-10.848V73.24c0 4.096 1.008 7.16 3.024 9.192s4.688 3.048 8.016 3.048zm33.408 8.832V83.224c1.536 1.504 3.76 2.256 6.672 2.256 2.304 0 4.424-.552 6.36-1.656 1.936-1.104 3.472-2.688 4.608-4.752 1.136-2.064 1.704-4.456 1.704-7.176 0-2.72-.568-5.12-1.704-7.2-1.136-2.08-2.672-3.672-4.608-4.776-1.936-1.104-4.056-1.656-6.36-1.656-3.232 0-5.632.88-7.2 2.64v-2.16h-10.32v35.568h10.848zm4.08-17.28c-1.248 0-2.272-.448-3.072-1.344-.8-.896-1.2-2.16-1.2-3.792 0-1.632.4-2.904 1.2-3.816.8-.912 1.824-1.368 3.072-1.368s2.272.456 3.072 1.368c.8.912 1.2 2.184 1.2 3.816 0 1.632-.4 2.896-1.2 3.792-.8.896-1.824 1.344-3.072 1.344zm28.944 8.448c2.912 0 5.392-.4 7.44-1.2 2.048-.8 3.584-1.872 4.608-3.216 1.024-1.344 1.536-2.832 1.536-4.464 0-2.144-.568-3.792-1.704-4.944-1.136-1.152-2.448-1.936-3.936-2.352-1.488-.416-3.304-.752-5.448-1.008-1.376-.16-2.384-.328-3.024-.504-.64-.176-.96-.472-.96-.888 0-.832 1.184-1.248 3.552-1.248 2.752 0 5.28.64 7.584 1.92l2.976-7.152c-1.344-.704-2.968-1.24-4.872-1.608a30.663 30.663 0 00-5.832-.552c-2.848 0-5.288.4-7.32 1.2-2.032.8-3.56 1.872-4.584 3.216a7.33 7.33 0 00-1.536 4.56c0 2.144.568 3.792 1.704 4.944 1.136 1.152 2.456 1.928 3.96 2.328 1.504.4 3.328.728 5.472.984 1.408.16 2.424.32 3.048.48.624.16.936.448.936.864s-.248.728-.744.936c-.496.208-1.368.312-2.616.312-1.568 0-3.184-.208-4.848-.624-1.664-.416-3.104-.992-4.32-1.728l-2.976 7.152c1.344.768 3.104 1.392 5.28 1.872 2.176.48 4.384.72 6.624.72z" fill="#2B3547"/><path d="M11.635 3.255c.25.689-.141 1.222-1.175 1.598-.206.075-.374.097-.503.066-.664-1.397-1.892-1.77-3.684-1.118-1.688.615-2.295 3.021-1.82 7.219.37 2.947 1.006 5.662 1.91 8.142.228-.122.538-.235.93-.338l1.395-.508c1.275-.464 2.05-.317 2.326.44.088.242.179.6.273 1.072-.438.51-1.243.98-2.415 1.406-.896.326-1.422.595-1.578.808.385 1.382 1.218 3.83 2.497 7.344l1.354 3.721a24.298 24.298 0 002.393 4.807c.132.147.223.29.273.427.301.827-.134 1.454-1.306 1.88-1.033.376-2.058-.83-3.074-3.622-1.782-4.895-3.064-8.508-3.847-10.837l-.145-.435c-.348-1.047-.578-1.794-.692-2.24l-2.636.959c-.792.288-1.326.053-1.602-.705-.364-.999.143-1.75 1.521-2.25l1.861-.678a82.733 82.733 0 00-.753-2.711C.32 8.349 1.218 2.832 5.835 1.152c2.964-1.08 4.897-.378 5.8 2.103zM26.93 11.91c.39 1.068.852 2.714 1.388 4.938.558 2.177 1.12 4.04 1.684 5.591.226.62.71 1.79 1.453 3.51.765 1.673 1.285 2.888 1.561 3.646.552 1.516.712 2.492.48 2.927-.156.213-.424.389-.803.527-.758.276-1.394.136-1.908-.418a185.05 185.05 0 00-1.11-1.762c-.46 1.846-1.826 3.397-4.1 4.654-.846.463-2.024.443-3.534-.06-1.369-.439-2.376-1.009-3.022-1.71-.896-.961-1.934-3.062-3.112-6.3l-4.082-11.216c-.583-.958-.186-1.688 1.192-2.19.965-.35 1.648.025 2.05 1.127.602 1.654 1.334 3.827 2.196 6.517 1.126 3.414 1.858 5.587 2.196 6.517.417 1.253 1.144 2.393 2.182 3.42 1.228 1.231 2.376 1.652 3.444 1.263 1.757-.64 2.692-2.306 2.804-5 .05-2.008-.308-4.063-1.073-6.165l-2.464-6.77c-.1-.276-.342-.618-.724-1.025-.36-.454-.597-.836-.71-1.146a3.707 3.707 0 01-.155-.587c.319-.624.714-1.04 1.183-1.25 1.5-.703 2.495-.382 2.984.962zm12.65-7.355c2.112.011 3.853.666 5.222 1.962 2.334 2.233 4.317 5.59 5.947 10.068l2.84 7.804c-.068.455-.292.75-.671.889-.379.138-1.087.122-2.124-.047l-.15-.413c-.113-.31-.265-.782-.457-1.414a28.934 28.934 0 00-.437-1.363C45.587 10.602 42.076 5.403 39.216 6.444c-.896.326-1.622 1.332-2.18 3.017-1.44 4.192-1.263 8.751.53 13.679.24.654.694 1.581 1.364 2.781.693 1.153 1.158 2.056 1.397 2.71.188.518-.08.908-.803 1.171-1.379.502-2.463-.333-3.253-2.503l-4.27-11.733c-.113-.31-.241-.77-.386-1.38a13.219 13.219 0 00-.385-1.382c-.163-.448-.47-1.078-.922-1.889-.417-.824-.7-1.442-.851-1.856-.1-.275-.007-.66.282-1.156.31-.542.585-.857.826-.945.448-.163.95-.072 1.504.273.712 2.277 1.137 3.605 1.275 3.984.188.517.387 1.01.597 1.48.272-.216.479-.935.62-2.157.178-1.548.403-2.644.675-3.29.476-1.265 1.248-2.093 2.316-2.481.413-.15 1.09-.222 2.03-.212zm2.496 28.047c.482.175.902.523 1.259 1.043.357.52.448 1.022.272 1.504-.125.345-.375.761-.748 1.25-.457.614-.734 1-.832 1.16-1.266 2.193-2.664 5.39-4.194 9.594-2.47 6.788-3.679 10.055-3.626 9.801-1.439 4.276-2.323 7.563-2.653 9.863-.037.103-.056.37-.056.798.046.408.032.715-.043.921-.326.896-.971 1.169-1.936.818-.607-.221-.908-.896-.903-2.026-.835-.116-1.442-.696-1.822-1.738l-6.903-18.968c.36-.404.747-.681 1.16-.832.414-.15.888-.187 1.424-.108.673.028 1.073.214 1.198.558.226.62.427 1.601.603 2.942.176 1.34.376 2.321.602 2.941l4.157 11.422c.041.113.088.231.14.354.347-1.329.856-2.899 1.526-4.709l8.601-23.15c.138-.378.281-.931.429-1.658.16-.761.302-1.314.428-1.658.83-.245 1.469-.285 1.917-.122z" fill="purple"/></g></svg>
